<mxfile host="app.diagrams.net" modified="2023-07-12T07:26:15.872Z" agent="Mozilla/5.0 (Windows NT 10.0; Win64; x64) AppleWebKit/537.36 (KHTML, like Gecko) Chrome/114.0.0.0 Safari/537.36 Edg/114.0.1823.67" etag="aT0uspPJh1gzf52WWN3O" version="21.6.1" type="device">
  <diagram name="Page-1" id="OVjEofL-sgKcbd9HOybB">
    <mxGraphModel dx="1379" dy="788" grid="1" gridSize="10" guides="1" tooltips="1" connect="1" arrows="1" fold="1" page="1" pageScale="1" pageWidth="850" pageHeight="1100" math="0" shadow="0">
      <root>
        <mxCell id="0" />
        <mxCell id="1" parent="0" />
        <mxCell id="NqcoI_MracBSuX6Vebfe-8" style="edgeStyle=orthogonalEdgeStyle;rounded=0;orthogonalLoop=1;jettySize=auto;html=1;" edge="1" parent="1" source="NqcoI_MracBSuX6Vebfe-1" target="NqcoI_MracBSuX6Vebfe-2">
          <mxGeometry relative="1" as="geometry" />
        </mxCell>
        <mxCell id="NqcoI_MracBSuX6Vebfe-1" value="" style="rounded=1;whiteSpace=wrap;html=1;" vertex="1" parent="1">
          <mxGeometry x="80" y="290" width="120" height="60" as="geometry" />
        </mxCell>
        <mxCell id="NqcoI_MracBSuX6Vebfe-11" style="edgeStyle=orthogonalEdgeStyle;rounded=0;orthogonalLoop=1;jettySize=auto;html=1;entryX=-0.025;entryY=0.633;entryDx=0;entryDy=0;entryPerimeter=0;" edge="1" parent="1" source="NqcoI_MracBSuX6Vebfe-2" target="NqcoI_MracBSuX6Vebfe-4">
          <mxGeometry relative="1" as="geometry" />
        </mxCell>
        <mxCell id="NqcoI_MracBSuX6Vebfe-2" value="" style="ellipse;shape=cloud;whiteSpace=wrap;html=1;" vertex="1" parent="1">
          <mxGeometry x="240" y="280" width="120" height="80" as="geometry" />
        </mxCell>
        <mxCell id="NqcoI_MracBSuX6Vebfe-3" value="" style="rounded=1;whiteSpace=wrap;html=1;" vertex="1" parent="1">
          <mxGeometry x="400" y="220" width="120" height="60" as="geometry" />
        </mxCell>
        <mxCell id="NqcoI_MracBSuX6Vebfe-4" value="" style="rounded=1;whiteSpace=wrap;html=1;" vertex="1" parent="1">
          <mxGeometry x="400" y="360" width="120" height="60" as="geometry" />
        </mxCell>
        <mxCell id="NqcoI_MracBSuX6Vebfe-5" value="192.168.8.1" style="text;html=1;strokeColor=none;fillColor=none;align=center;verticalAlign=middle;whiteSpace=wrap;rounded=0;" vertex="1" parent="1">
          <mxGeometry x="110" y="305" width="60" height="30" as="geometry" />
        </mxCell>
        <mxCell id="NqcoI_MracBSuX6Vebfe-6" value="192.168.10.1" style="text;html=1;strokeColor=none;fillColor=none;align=center;verticalAlign=middle;whiteSpace=wrap;rounded=0;" vertex="1" parent="1">
          <mxGeometry x="425" y="235" width="60" height="30" as="geometry" />
        </mxCell>
        <mxCell id="NqcoI_MracBSuX6Vebfe-7" value="192.168.11.1" style="text;html=1;strokeColor=none;fillColor=none;align=center;verticalAlign=middle;whiteSpace=wrap;rounded=0;" vertex="1" parent="1">
          <mxGeometry x="425" y="380" width="60" height="30" as="geometry" />
        </mxCell>
        <mxCell id="NqcoI_MracBSuX6Vebfe-10" style="edgeStyle=orthogonalEdgeStyle;rounded=0;orthogonalLoop=1;jettySize=auto;html=1;entryX=0;entryY=0.5;entryDx=0;entryDy=0;" edge="1" parent="1" source="NqcoI_MracBSuX6Vebfe-9" target="NqcoI_MracBSuX6Vebfe-3">
          <mxGeometry relative="1" as="geometry" />
        </mxCell>
        <mxCell id="NqcoI_MracBSuX6Vebfe-9" value="Internet" style="text;html=1;strokeColor=none;fillColor=none;align=center;verticalAlign=middle;whiteSpace=wrap;rounded=0;" vertex="1" parent="1">
          <mxGeometry x="270" y="305" width="60" height="30" as="geometry" />
        </mxCell>
        <mxCell id="NqcoI_MracBSuX6Vebfe-12" value="OpenVPN server" style="text;html=1;strokeColor=none;fillColor=none;align=center;verticalAlign=middle;whiteSpace=wrap;rounded=0;" vertex="1" parent="1">
          <mxGeometry x="80" y="360" width="110" height="30" as="geometry" />
        </mxCell>
        <mxCell id="NqcoI_MracBSuX6Vebfe-13" value="OpenVPN client A" style="text;html=1;strokeColor=none;fillColor=none;align=center;verticalAlign=middle;whiteSpace=wrap;rounded=0;" vertex="1" parent="1">
          <mxGeometry x="390" y="190" width="120" height="30" as="geometry" />
        </mxCell>
        <mxCell id="NqcoI_MracBSuX6Vebfe-14" value="OpenVPN client B" style="text;html=1;strokeColor=none;fillColor=none;align=center;verticalAlign=middle;whiteSpace=wrap;rounded=0;" vertex="1" parent="1">
          <mxGeometry x="390" y="430" width="120" height="30" as="geometry" />
        </mxCell>
        <mxCell id="NqcoI_MracBSuX6Vebfe-15" value="" style="endArrow=none;dashed=1;html=1;dashPattern=1 3;strokeWidth=2;rounded=0;entryX=0.5;entryY=1;entryDx=0;entryDy=0;exitX=0.5;exitY=0;exitDx=0;exitDy=0;" edge="1" parent="1" source="NqcoI_MracBSuX6Vebfe-4" target="NqcoI_MracBSuX6Vebfe-3">
          <mxGeometry width="50" height="50" relative="1" as="geometry">
            <mxPoint x="400" y="430" as="sourcePoint" />
            <mxPoint x="450" y="380" as="targetPoint" />
          </mxGeometry>
        </mxCell>
        <mxCell id="NqcoI_MracBSuX6Vebfe-16" value="Access to each other" style="text;html=1;strokeColor=none;fillColor=none;align=center;verticalAlign=middle;whiteSpace=wrap;rounded=0;" vertex="1" parent="1">
          <mxGeometry x="460" y="305" width="70" height="30" as="geometry" />
        </mxCell>
      </root>
    </mxGraphModel>
  </diagram>
</mxfile>
